
<svg width="1500" height="1200" viewBox="0 0 1500 1200" fill="none" xmlns="http://www.w3.org/2000/svg">
<rect width="1500" height="1200" fill="white"/>
<path d="M48 1048H1452V1146H48V1048Z" fill="#FFF1DD"/>
<path d="M1190 726.001L1184.54 1074.68H836.773V749.671H804.91V726.001H1190Z" fill="#F5CB95"/>
<path d="M1122.63 751.492H1146.3V1075.59H1122.63V751.492Z" fill="#DFB86A"/>
<path d="M836.773 751.492H862.264V1075.59H836.773V751.492Z" fill="#DFB86A"/>
<path d="M862.264 900.792H1122.63V929.925H862.264V900.792Z" fill="#DFB86A"/>
<path d="M804 726H1175.43V751.491H804V726Z" fill="#DFB86A"/>
<path d="M882.293 766.056H911.425V898.971H882.293V766.056Z" fill="#DA661B"/>
<path d="M911.426 766.056H993.36V898.971H911.426V766.056Z" fill="#295D48"/>
<path d="M942.379 764.236H966.049V898.972H942.379V764.236Z" fill="white"/>
<path d="M995.179 901.703L966.047 769.698L995.179 762.415L1024.31 893.509L995.179 901.703Z" fill="#EBDFC2"/>
<path d="M995.18 762.415L1024.31 893.509H1098.96L1068.01 762.415H995.18Z" fill="#F49F02"/>
<path d="M882.293 939.027H1002.46V1073.76H882.293V939.027Z" fill="#DC6419"/>
<path d="M922.35 939.027H938.736V1073.76H922.35V939.027Z" fill="white"/>
<path d="M882.293 939.027H902.321V1073.76H882.293V939.027Z" fill="#B74900"/>
<path fill-rule="evenodd" clip-rule="evenodd" d="M897 650.51C897 649.676 897.68 649 898.519 649H954.704C955.542 649 956.222 649.676 956.222 650.51V661.254C969.048 662.749 979 673.591 979 686.745V688.255C979 701.409 969.048 712.251 956.222 713.746V718.451C956.222 722.62 952.823 726 948.63 726H904.593C900.399 726 897 722.62 897 718.451V650.51ZM956.222 706.122C964.84 704.684 971.407 697.232 971.407 688.255V686.745C971.407 677.768 964.84 670.316 956.222 668.878V706.122Z" fill="#F39D0A"/>
<path d="M897 650.51C897 649.676 897.68 649 898.519 649H954.704C955.542 649 956.222 649.676 956.222 650.51V661.254V713.746V718.451C956.222 722.62 952.823 726 948.63 726H914C920.333 722.167 939.5 712.378 923.5 703C904.238 691.71 925.5 675.122 930 672C934.5 668.878 936.5 661 897 664V650.51Z" fill="#F4AE37"/>
<path d="M979 686.745C979 673.592 969.049 662.749 956.223 661.254V668.878C964.841 670.316 971.408 677.768 971.408 686.745V688.255C971.408 697.232 964.841 704.685 956.223 706.122V713.746C969.049 712.252 979 701.409 979 688.255V686.745Z" fill="#F4AE37"/>
<path fill-rule="evenodd" clip-rule="evenodd" d="M1082.74 646.27C1082.5 633.787 1081.7 621.599 1081.04 614.193L1082.03 614.103C1082.7 621.53 1083.5 633.742 1083.74 646.251C1083.97 658.749 1083.64 671.585 1082.03 680.239L1081.04 680.056C1082.63 671.51 1082.97 658.763 1082.74 646.27Z" fill="#954E0C"/>
<path fill-rule="evenodd" clip-rule="evenodd" d="M1077.54 675.166C1076.33 641.019 1091.09 620.033 1098.72 613.762L1099.35 614.534C1091.98 620.596 1077.34 641.277 1078.54 675.13L1077.54 675.166Z" fill="#954E0C"/>
<path fill-rule="evenodd" clip-rule="evenodd" d="M1068.43 647.414C1066.88 635.819 1066.45 623.995 1066.54 616.642L1067.54 616.653C1067.45 623.967 1067.88 635.743 1069.42 647.282C1070.19 653.051 1071.24 658.752 1072.64 663.802C1074.04 668.858 1075.79 673.23 1077.95 676.365L1077.12 676.931C1074.88 673.665 1073.09 669.171 1071.68 664.069C1070.26 658.961 1069.2 653.212 1068.43 647.414Z" fill="#954E0C"/>
<path fill-rule="evenodd" clip-rule="evenodd" d="M1080.54 680.081C1084.91 647.927 1065.15 625.994 1054.76 619.064L1055.31 618.232C1065.92 625.302 1085.96 647.569 1081.53 680.215L1080.54 680.081Z" fill="#954E0C"/>
<path fill-rule="evenodd" clip-rule="evenodd" d="M1083.54 678.656C1083.14 654.116 1065.89 641.397 1057.36 638.114L1057.71 637.181C1066.51 640.565 1084.13 653.579 1084.53 678.64L1083.54 678.656Z" fill="#954E0C"/>
<path fill-rule="evenodd" clip-rule="evenodd" d="M1083.82 645.87C1088.06 639.915 1092.56 637.738 1095.52 637.648L1095.55 638.647C1093.01 638.724 1088.76 640.647 1084.63 646.45C1080.5 652.243 1076.52 661.865 1074.53 677.212L1073.54 677.083C1075.55 661.63 1079.57 651.836 1083.82 645.87Z" fill="#954E0C"/>
<path fill-rule="evenodd" clip-rule="evenodd" d="M1068.48 652.243C1064.43 647.401 1059.41 645.988 1056.06 646.147L1056.01 645.148C1059.66 644.974 1064.99 646.511 1069.24 651.602C1073.5 656.694 1076.64 665.29 1076.04 679.169L1075.04 679.126C1075.63 665.406 1072.52 657.085 1068.48 652.243Z" fill="#954E0C"/>
<path d="M1093.64 636.882C1110.55 629.65 1155.19 628.555 1154.05 669.068C1154.04 669.418 1153.85 669.753 1153.54 669.918C1130.2 682.384 1095.02 670.091 1093.07 637.833C1093.05 637.425 1093.26 637.042 1093.64 636.882Z" fill="#F49E03"/>
<path d="M1097.18 614.459C1100.9 597.343 1115.71 568.866 1146.75 585.714C1147.19 585.954 1147.4 586.486 1147.21 586.949C1140.62 602.765 1122.13 629.246 1097.67 615.512C1097.29 615.303 1097.09 614.877 1097.18 614.459Z" fill="#DD6419"/>
<path d="M990.127 649.578C1001.32 629.381 1017.48 602.372 1061.61 637.504C1062.23 637.991 1062.09 638.98 1061.35 639.233C1043.56 645.335 1007.55 655.213 990.709 650.977C990.094 650.822 989.819 650.133 990.127 649.578Z" fill="#F49E03"/>
<path d="M1059.42 643.26C1040.54 636.903 1004.54 634.15 1002.08 671.301C1002.05 671.78 1002.36 672.23 1002.83 672.331C1015.43 675.04 1043.02 673.067 1059.92 644.691C1060.24 644.156 1060.01 643.459 1059.42 643.26Z" fill="#DD6419"/>
<path d="M999.068 577.353C1016.86 572.251 1051.87 562.36 1056.98 619.499C1057.01 619.883 1056.83 620.275 1056.47 620.427C1053.9 621.532 1047.34 622.6 1045.04 618.648C1043.87 616.648 1039.74 613.048 1032.54 614.648C1027.16 615.843 1004.67 593.48 998.436 578.65C998.209 578.111 998.506 577.514 999.068 577.353Z" fill="#DD6419"/>
<path d="M1033.52 557.514C1046.33 556.601 1074.24 560.925 1067.9 618.569C1067.79 619.53 1066.52 619.823 1066.05 618.977L1032.76 558.964C1032.42 558.339 1032.81 557.565 1033.52 557.514Z" fill="#F49E03"/>
<path d="M1083.44 619.934C1086.27 614.834 1091.75 601.779 1094.03 584.648C1094.06 584.45 1094.09 584.227 1094.13 583.981C1094.56 581.122 1095.45 575.173 1091.03 569.648C1088.63 566.648 1087.83 558.048 1091.03 551.648C1091.66 550.393 1091.26 549.138 1090.78 547.635C1090.49 546.744 1090.18 545.765 1090.03 544.648C1089.23 538.34 1084.43 524.874 1071.72 520.063C1071.12 519.836 1070.48 520.252 1070.41 520.89C1069.72 526.958 1067.5 539.081 1063.03 547.648C1062.82 548.068 1062.93 548.664 1063.12 549.583C1063.37 550.855 1063.75 552.746 1063.53 555.648C1062.7 566.648 1061.93 590.048 1065.53 595.648C1069.32 602.91 1077.69 617.41 1082.3 620.28C1082.71 620.534 1083.21 620.355 1083.44 619.934Z" fill="#DD6419"/>
<path fill-rule="evenodd" clip-rule="evenodd" d="M1073.47 523.152C1073.75 523.118 1074 523.312 1074.03 523.586C1075.53 535.507 1077.68 554.263 1079.26 571.791C1080.05 580.555 1080.69 589.016 1081.04 596.163C1081.38 603.3 1081.44 609.16 1081.03 612.705C1081 612.98 1080.75 613.177 1080.48 613.145C1080.2 613.114 1080.01 612.866 1080.04 612.592C1080.43 609.137 1080.39 603.351 1080.04 596.212C1079.69 589.083 1079.05 580.638 1078.26 571.881C1076.69 554.367 1074.54 535.623 1073.04 523.711C1073 523.437 1073.2 523.187 1073.47 523.152Z" fill="white"/>
<path fill-rule="evenodd" clip-rule="evenodd" d="M1035.69 559.285C1035.89 559.095 1036.21 559.104 1036.4 559.305C1040.75 563.911 1047.5 572.137 1053.61 581.87C1059.71 591.597 1065.21 602.871 1067.03 613.565C1067.07 613.837 1066.89 614.095 1066.62 614.141C1066.35 614.188 1066.09 614.004 1066.04 613.732C1064.26 603.226 1058.84 592.083 1052.76 582.402C1046.69 572.727 1039.98 564.553 1035.67 559.992C1035.48 559.791 1035.49 559.475 1035.69 559.285Z" fill="white"/>
<path fill-rule="evenodd" clip-rule="evenodd" d="M1001.08 578.943C1001.19 578.691 1001.49 578.579 1001.74 578.693C1007.68 581.371 1017.38 586.484 1027.2 593.135C1037.02 599.781 1046.99 607.986 1053.44 616.854C1053.6 617.078 1053.55 617.391 1053.33 617.553C1053.11 617.715 1052.79 617.666 1052.63 617.443C1046.28 608.711 1036.42 600.583 1026.64 593.963C1016.87 587.346 1007.22 582.26 1001.33 579.604C1001.08 579.491 1000.97 579.195 1001.08 578.943Z" fill="white"/>
<path fill-rule="evenodd" clip-rule="evenodd" d="M1056.81 639.093C1029.08 624.836 1003.65 640.075 994.392 649.499C994.198 649.696 993.882 649.698 993.685 649.505C993.488 649.311 993.485 648.995 993.678 648.798C1003.09 639.221 1028.99 623.66 1057.26 638.204C1057.51 638.33 1057.61 638.631 1057.48 638.877C1057.35 639.123 1057.05 639.219 1056.81 639.093Z" fill="white"/>
<path fill-rule="evenodd" clip-rule="evenodd" d="M1058.03 645.104C1058.06 645.379 1057.85 645.622 1057.58 645.646C1030.94 648.033 1011.01 663.552 1004.41 670.981C1004.23 671.187 1003.91 671.206 1003.7 671.022C1003.5 670.839 1003.48 670.523 1003.66 670.316C1010.39 662.745 1030.53 647.064 1057.49 644.65C1057.77 644.626 1058.01 644.829 1058.03 645.104Z" fill="white"/>
<path fill-rule="evenodd" clip-rule="evenodd" d="M1145.02 587.518C1145.09 587.784 1144.93 588.059 1144.67 588.131C1125.59 593.299 1107.53 607.865 1100.89 614.502C1100.69 614.697 1100.38 614.697 1100.18 614.502C1099.99 614.307 1099.99 613.99 1100.18 613.795C1106.88 607.099 1125.08 592.398 1144.4 587.166C1144.67 587.094 1144.95 587.251 1145.02 587.518Z" fill="white"/>
<path fill-rule="evenodd" clip-rule="evenodd" d="M1095.09 638.919C1095.22 638.673 1095.52 638.578 1095.77 638.705L1151.77 667.705C1152.01 667.832 1152.11 668.133 1151.98 668.378C1151.85 668.624 1151.55 668.72 1151.31 668.593L1095.31 639.593C1095.06 639.466 1094.96 639.164 1095.09 638.919Z" fill="white"/>
<path d="M1052 662H1100L1108 686.5L1097 725.999H1054L1043 686.5L1052 662Z" fill="#77401C"/>
<path fill-rule="evenodd" clip-rule="evenodd" d="M1108 687H1043V686H1108V687Z" fill="#E5BB8C"/>
<path d="M1054 726H1097L1098.95 719H1052.05L1054 726Z" fill="#643516"/>
<path d="M554.223 869L576.588 908.76V1047.92H554.223V869Z" fill="#DBA747"/>
<path d="M576.589 908.76V1047.92H565.406V888.88L576.589 908.76Z" fill="#CC993B"/>
<path d="M636.403 1092.22H643.183V1099H636.403L629.102 1095.87V1088.05L636.403 1092.22Z" fill="#A04E0C"/>
<path d="M636.404 1092.22H643.184V1099H636.404V1092.22Z" fill="#A04E0C"/>
<path d="M360 1080.75L361.565 1067.19L568.607 1040.59L769.391 1047.37L771.477 1053.89L773.563 1060.41L568.607 1072.92L360 1080.75Z" fill="#E0B25E"/>
<path d="M568.607 1040.59L361.564 1067.19L771.477 1053.89L769.391 1047.37L568.607 1040.59Z" fill="#DBA747"/>
<path d="M769.391 1047.37L568.607 1040.59L621.501 1058.75L771.477 1053.89L769.391 1047.37Z" fill="#CC993B"/>
<path d="M608.242 1059.89L642.662 1079.7V1092.22H636.404L608.242 1076.05V1064.06V1059.89Z" fill="#E0B25E"/>
<path d="M642.662 1092.22V1079.7H636.404V1092.22H642.662Z" fill="#DBA747"/>
<path d="M642.662 1079.7L608.242 1059.89V1064.06L636.404 1079.7H642.662Z" fill="#DBA747"/>
<path d="M752.18 1061.45L773.562 1060.41V1066.67H752.18V1061.45Z" fill="#A04E0C"/>
<path d="M360 1086.48V1080.22L381.382 1079.7V1086.48H360Z" fill="#A04E0C"/>
<path d="M311.545 461.59C304.457 500.578 368.698 602.922 374.901 703.051C478.397 920.677 662.662 821.787 701.427 709.253C760.796 536.907 800.791 487.729 785.606 450.07C776.745 428.095 755.922 430.473 738.2 437.222C585.792 495.261 486.106 490.393 366.926 446.083C339.28 435.804 317.345 429.691 311.545 461.59Z" fill="#E0B25E"/>
<path d="M391.985 735C497.501 910.167 664.714 815.829 701.427 709.253C708.188 689.626 714.697 671.597 720.903 655C719.306 650.5 716.5 650 712 651C751.6 553.614 708.075 480.884 681.363 456.693C571.706 489.687 488.668 485.923 397.5 456.693C312.161 526.497 384.942 643.806 409.966 684.139L410.5 685C430.1 716.6 406.323 731.5 391.985 735Z" fill="#B0873C"/>
<path d="M562.31 931.233C709.845 931.233 770.542 800.534 780.732 691.1C751.491 736.735 746.618 830.218 572.943 830.218C442.687 830.218 436.041 827.117 337.765 703.506C337.341 704.86 337.155 706.344 337.241 707.936C362.495 855.472 441.801 931.233 562.31 931.233Z" fill="#DBA747"/>
<path d="M562.309 931.233C709.844 931.233 770.541 800.534 780.731 691.1C769.987 749.989 717.699 874.114 594.499 899.5C560.499 905.5 551.999 855.778 551.999 830.167C485.167 829.752 454.716 826.159 420.499 797.486C420.332 824.537 424.299 882.374 441.499 897.319C475.08 919.851 515.599 931.233 562.309 931.233Z" fill="#CC993B"/>
<path d="M467.941 810.723C444.903 804.52 407.188 748.253 384.648 715.911C366.248 689.51 341.707 690.919 337.766 703.507C436.042 827.117 442.688 830.218 572.944 830.218C746.618 830.218 751.492 736.735 780.733 691.1C773.644 671.606 746.618 693.879 737.314 708.822C722.694 732.303 708.959 799.186 642.945 810.723C597.311 818.698 516.677 823.844 467.941 810.723Z" fill="#E0B25E"/>
<path d="M638.999 810.723C593.365 818.698 516.675 823.844 467.939 810.723C455.196 807.292 437.963 788.544 421.291 767C422.527 784.834 445.099 821.5 525.499 825.5C625.999 830.5 666.999 817.545 711.499 779.5C747.099 749.065 754.531 707.885 753.797 691.1C747.108 696.225 740.896 703.067 737.312 708.822C722.692 732.304 705.013 799.187 638.999 810.723Z" fill="#B0873C"/>
<path d="M642.945 810.721C597.312 818.696 516.677 823.842 467.942 810.721C459.98 808.578 450.265 800.455 440.029 789.406C420.648 768.485 399.399 737.075 384.648 715.91L737.315 708.82C726.896 725.554 716.927 764.328 688.168 789.406C676.57 799.52 661.917 807.406 642.945 810.721Z" fill="#B0873C"/>
<path d="M642.945 810.722C597.311 818.697 516.677 823.843 467.941 810.722C459.98 808.579 450.265 800.456 440.029 789.407C467.941 769.078 493.195 796.103 544.146 791.673L679.275 784.584L688.168 789.407C676.57 799.521 661.916 807.407 642.945 810.722Z" fill="#CCDAC9"/>
<path d="M430 773C423.999 697.5 424.893 708.981 445.274 691.913C476.147 686.141 567.158 681.5 604.158 679.5H658.5C658.5 679.5 764 719 692.5 788C662 825 436.001 848.5 430 773Z" fill="#C7460B"/>
<path d="M556.209 406C530.86 400.857 518.738 385.456 514.487 371.5C513.028 382.799 512.75 401.091 505.025 411C504.318 411.908 503.548 412.745 502.709 413.5C514.487 430.5 538.709 443.5 562.709 443.5C594.209 443.5 595.209 428.5 582.209 420C581.542 414.044 580.609 400.469 582.209 393.816C575.201 400.745 566.404 406 556.209 406Z" fill="#EBAC76"/>
<path d="M582.209 420C595.209 428.5 594.209 443.5 562.709 443.5C573.1 434.316 573.197 426.13 572.006 420C562.01 432 525.837 416.667 509 407.5C509.833 403.333 511.6 394.6 512 393C523.5 409.5 551 420 570.5 413.5C573.346 412.551 569 408 569 399C573.755 396.799 578.432 397.551 582.209 393.816C580.609 400.469 581.542 414.044 582.209 420Z" fill="#DD7A42"/>
<path d="M604.209 430.5C595 428 584.5 423 581.5 413C569 426.5 522.5 420.5 511 397.5C506.5 406 496.209 416 489.209 418.5C470.709 424 429.809 441.9 418.209 447.5C436.609 448.7 443.209 487.333 444.209 506.5L447.709 557.5C447.709 557.5 426 667.5 426 732C426 760 651.709 739.5 651.709 739.5V526.5C653.876 507 662.809 468.5 681.209 470.5C672.009 451.7 626.042 436 604.209 430.5Z" fill="#F5CB97"/>
<path d="M604.209 430.5C595 428 584.5 423 581.5 413C579.192 415.493 575.723 417.322 571.529 418.5C575.02 425.334 587.1 439.5 607.5 441.5C633 444 666 461.332 671 473.916C674.016 471.4 677.411 470.087 681.209 470.5C672.009 451.7 626.043 436 604.209 430.5Z" fill="#F2C183"/>
<path d="M426 732C426 760 651.709 739.5 651.709 739.5V656C603.639 692 491.2 757.6 426 732Z" fill="#F2C183"/>
<path d="M473 681.999C435.4 680.799 425 715.666 426 731.999C426 745.68 479.886 747.783 535 746.355C529 722.21 520 683.499 473 681.999Z" fill="#F2C183"/>
<path d="M651.71 526.5C653.876 507 662.81 468.5 681.21 470.5C677.38 462.674 667.179 455.386 655.001 449.146C632.501 453.264 597.501 493.2 637.501 620C619.001 630 585.001 638.5 531.501 623.5C488.701 611.5 448.001 598 445.001 585.5C442.001 573 438.172 597.4 434.437 637C432.739 649.018 431.124 661.564 429.77 674C446.513 678.226 487.201 680.841 516.001 657.5C535.501 667 552.001 661 564.001 664C576.001 667 613.419 696.5 651.71 668.5V526.5Z" fill="#F2C183"/>
<path fill-rule="evenodd" clip-rule="evenodd" d="M511.013 396.407L511.448 397.276C517.093 408.567 531.399 415.769 545.966 418.445C553.233 419.781 560.519 419.98 566.752 419.013C572.999 418.045 578.119 415.916 581.134 412.66L581.728 412.018L581.979 412.856C584.897 422.581 595.145 427.52 604.336 430.017C615.275 432.772 632.252 438.081 647.653 445.057C655.355 448.546 662.677 452.457 668.656 456.684C674.626 460.904 679.304 465.469 681.659 470.28L680.76 470.72C678.515 466.131 673.997 461.683 668.079 457.5C662.169 453.324 654.91 449.442 647.241 445.968C631.903 439.021 614.982 433.73 604.087 430.985L604.079 430.983C595.094 428.543 584.665 423.68 581.279 413.938C578.001 417.084 572.882 419.075 566.905 420.002C560.544 420.988 553.144 420.781 545.785 419.429C531.455 416.796 517.114 409.781 510.99 398.559C508.686 402.632 505.171 406.956 501.39 410.61C497.361 414.503 492.977 417.686 489.378 418.971L489.365 418.976L489.352 418.979C470.892 424.467 430.022 442.352 418.427 447.95L417.992 447.05C429.594 441.449 470.507 423.541 489.054 418.025C492.453 416.807 496.709 413.742 500.695 409.89C504.679 406.041 508.34 401.457 510.559 397.266L511.013 396.407Z" fill="#CD511C"/>
<path d="M604.209 430.5C595 428 584.5 423 581.5 413C569 426.5 522.5 420.5 511 397.5C506.5 406 496.209 416 489.209 418.5C505.945 441.834 552.376 476.901 604.209 430.5Z" fill="#F5CB97"/>
<path fill-rule="evenodd" clip-rule="evenodd" d="M519.249 448.771C505.106 441.159 495.724 428.441 488.803 418.791L489.615 418.208C496.544 427.868 505.808 440.401 519.723 447.89C533.603 455.361 552.179 457.846 577.809 447.253L578.191 448.177C552.321 458.869 533.427 456.402 519.249 448.771Z" fill="#C8400B"/>
<path d="M604.209 430.5C595 428 584.5 423 581.5 413C579.864 414.767 577.646 416.199 575 417.304C577 431.147 589.167 436.837 595 437.951C598.047 435.744 601.118 433.267 604.209 430.5Z" fill="#F2C183"/>
<path fill-rule="evenodd" clip-rule="evenodd" d="M511.013 396.407L511.447 397.276C517.093 408.567 531.398 415.769 545.966 418.445C553.232 419.781 560.519 419.98 566.752 419.013C572.998 418.045 578.118 415.916 581.133 412.66L581.728 412.018L581.979 412.856C584.897 422.583 595.148 427.522 604.34 430.018L604.078 430.983C595.094 428.543 584.664 423.68 581.278 413.938C578 417.084 572.881 419.075 566.905 420.002C560.544 420.988 553.143 420.781 545.785 419.429C531.454 416.796 517.113 409.781 510.99 398.559C508.685 402.632 505.17 406.956 501.39 410.61C497.36 414.503 492.976 417.686 489.377 418.971L489.041 418.029C492.442 416.815 496.704 413.747 500.695 409.89C504.678 406.041 508.339 401.457 510.558 397.266L511.013 396.407Z" fill="#CD511C"/>
<path fill-rule="evenodd" clip-rule="evenodd" d="M519.082 459.948C498.9 451.439 485.097 434.891 478.557 422.229L479.445 421.771C485.905 434.275 499.552 450.628 519.47 459.027C539.358 467.412 565.564 467.898 597.24 448.573L597.761 449.427C565.838 468.902 539.294 468.471 519.082 459.948Z" fill="#C8400B"/>
<path d="M492 652.5L489 573.5H492H562.5V647L492 652.5Z" fill="#295C47"/>
<path d="M562.5 647L492 652.5L490.5 613L512 612C523.5 605 549.2 593.2 560 602C562 604 562.5 609.5 562.5 612V647Z" fill="#134F36"/>
<path d="M567 573.5V645.765L562.5 647V573.5H567Z" fill="#0B3D28"/>
<path d="M567 573.5V645.758L623.5 628.758L627 536.5L618 541.15L567 567.5V573.5Z" fill="#295C47"/>
<path d="M567 609.63V645.759L588 639.44C613.6 610.592 584.667 607.546 567 609.63Z" fill="#134F36"/>
<path d="M496.5 566.5L492 573.5H562.5L564.5 570C557.5 567 551.333 566.5 547.5 566.5H496.5Z" fill="#F7F8F0"/>
<path d="M567 567.5V573.5H562.5L564.5 570C566.9 560 601.167 540.5 618 532V541.15L567 567.5Z" fill="#D4DAB8"/>
<path d="M612 531C605.2 533.8 563 551 564.5 570C566.9 560 601.167 540.5 618 532L612 531Z" fill="white"/>
<path d="M447.708 557.501C449.416 539.001 375.444 539 375.999 563.5L387.499 630.5C394.29 691 512.208 654 526.708 648C541.208 642 587.599 647.701 591.999 618.501C591.999 606.001 553.67 621.617 544.499 619.501C535.328 617.385 569.452 606.33 556.708 604.001C540.375 601.016 525.589 605.748 515.208 618.501C515.208 618.501 497.216 620.164 485.708 619.501C465.748 618.351 440.499 610.001 440.499 610.001C441.999 592.501 445.999 576.001 447.708 557.501Z" fill="#EBAC76"/>
<path d="M573.999 638.789C557.99 645.099 535.916 644.189 526.707 648C524.198 649.038 518.591 651.005 510.999 653.234C496.199 635.422 503.499 627.499 507.999 627.499C511.632 627.499 520.151 630.693 531.717 634.869C519.442 629.461 522.091 624.473 526.707 622.999C543.499 617.64 567.166 630.526 573.999 638.789Z" fill="#E98C3D"/>
<path d="M418.208 447.5C447.97 449.441 452.5 531.5 447 566.5C446.91 566.421 446.82 566.342 446.729 566.264C444.839 580.869 441.759 595.314 440.5 610.001C440.5 610.001 465.748 618.351 485.709 619.501C492.035 619.866 500.321 619.527 506.5 619.148C504.166 626.922 501.8 644.622 511 653.235C474.722 663.886 393.116 680.529 387.5 630.5C377.093 569.87 357.512 488.844 418.208 447.5Z" fill="#F5CB97"/>
<path d="M387.5 630.5C377.093 569.87 357.512 488.844 418.208 447.5C428.388 448.164 440.116 454.678 445 469C382.6 435.418 379.167 563.849 387.5 630.5Z" fill="#FED7A7"/>
<path fill-rule="evenodd" clip-rule="evenodd" d="M418.069 446.99L418.24 447.001C425.169 447.453 430.793 449.775 435.305 453.578C439.811 457.377 443.185 462.632 445.657 468.915C450.597 481.47 451.977 498.222 451.55 515.977C451.123 533.743 448.886 552.567 446.556 569.293C445.807 574.67 445.049 579.827 444.338 584.661C442.866 594.673 441.598 603.303 441.033 609.648C441.216 609.707 441.465 609.787 441.775 609.885C442.502 610.115 443.563 610.445 444.9 610.844C447.574 611.643 451.347 612.721 455.742 613.835C464.539 616.064 475.805 618.43 485.737 619.002C492.032 619.364 500.292 619.028 506.469 618.649L506.53 619.647C500.349 620.026 492.038 620.366 485.68 620C475.652 619.423 464.314 617.038 455.496 614.804C451.085 613.687 447.298 612.605 444.614 611.802C443.271 611.401 442.205 611.07 441.473 610.838C441.107 610.723 440.825 610.632 440.634 610.57C440.539 610.539 440.466 610.516 440.417 610.5L440.348 610.477L440.344 610.476L440.343 610.475C440.343 610.475 440.343 610.475 440.5 610L440.343 610.475L439.968 610.351L440.002 609.958C440.551 603.547 441.849 594.715 443.355 584.472C444.065 579.645 444.82 574.504 445.566 569.155C447.894 552.438 450.125 533.66 450.55 515.953C450.976 498.235 449.592 481.645 444.726 469.281C442.296 463.105 439.006 458.006 434.66 454.343C430.358 450.716 424.996 448.476 418.347 448.01C388.285 468.561 378.075 498.931 376.69 531.789C375.497 560.087 380.853 590.163 385.688 617.32C386.481 621.771 387.259 626.142 387.993 630.415L387.995 630.43L387.997 630.444C389.383 642.79 395.442 650.994 404.318 656.225C413.222 661.473 424.986 663.743 437.767 664.123C463.325 664.882 492.735 658.076 510.859 652.755L511.141 653.714C492.987 659.045 463.455 665.886 437.737 665.122C424.879 664.741 412.922 662.457 403.811 657.087C394.676 651.703 388.43 643.231 387.005 630.57C386.274 626.314 385.498 621.954 384.707 617.513C379.872 590.363 374.493 560.164 375.691 531.746C377.086 498.65 387.402 467.878 417.926 447.087L418.069 446.99Z" fill="#CD511C"/>
<path fill-rule="evenodd" clip-rule="evenodd" d="M430.077 611.178C433.926 608.986 438.008 608.905 440.613 609.513L440.385 610.487C437.99 609.928 434.172 609.997 430.571 612.047C426.99 614.086 423.564 618.12 421.988 625.603L421.01 625.397C422.634 617.68 426.208 613.381 430.077 611.178Z" fill="#C8400B"/>
<path fill-rule="evenodd" clip-rule="evenodd" d="M432.34 611.659C435.237 609.904 438.438 609.413 440.52 609.5L440.478 610.499C438.56 610.419 435.561 610.877 432.858 612.514C430.174 614.14 427.767 616.935 426.992 621.581L426.006 621.417C426.831 616.464 429.424 613.425 432.34 611.659Z" fill="#C8400B"/>
<path d="M636.292 566.204C634.584 547.704 708.556 547.703 708.001 572.203V634.203C701.21 694.703 579.001 664.703 564.501 658.703C550.001 652.703 507.501 670.703 505.001 634.203C505.001 621.703 531.83 642.319 541.001 640.203C550.172 638.087 516.048 627.032 528.792 624.703C545.125 621.718 559.911 626.45 570.292 639.203C570.292 639.203 589.792 642.203 610.501 636.203C631.21 630.203 643.501 618.704 643.501 618.704C642.001 601.204 638.001 584.704 636.292 566.204Z" fill="#EBAC76"/>
<path d="M541.001 640.203C531.83 642.32 505.001 621.703 505.001 634.203C507.501 670.703 550.001 652.703 564.501 658.703C568.118 660.2 578.44 663.191 592.001 665.897C605.201 660.615 599.501 645.937 595.001 639.259C589.96 639.833 585.344 639.987 581.501 639.948C584.167 646.798 586.201 659.9 573.001 657.5C556.501 654.5 507.001 660.203 509.001 636.5C509.001 632.8 560.758 651.16 541.626 637.603C540.363 636.457 538.009 635.076 535.501 633.643C538.053 635.192 540.073 636.503 541.626 637.603C542.935 638.791 543.073 639.725 541.001 640.203Z" fill="#E99C5B"/>
<path d="M666.292 456C612.927 459.48 640.77 580.819 644 618.501C628.422 633.075 605.442 639.484 584.5 639.742C586.736 645.272 589.167 657.699 581 663.166C618.268 672.162 702.881 684.052 708.5 634C708.5 573.591 724.268 495.491 666.292 456Z" fill="#F5CB97"/>
<path d="M581 663.166C618.268 672.162 702.881 684.052 708.5 634C708.5 573.591 724.268 495.491 666.292 456C662.242 456.264 658.661 457.207 655.5 458.74C676.236 472.827 715.566 529.6 695 636C691 634 668.5 622 652.5 654C646 660.5 627.215 671 585.858 656.5C585.04 659.115 583.528 661.474 581 663.166Z" fill="#EEB873"/>
<path fill-rule="evenodd" clip-rule="evenodd" d="M666.418 455.491L666.553 455.573C693.357 471.945 704.814 503.393 709.095 537.25C713.3 570.498 710.602 606.207 708.61 632.565C708.573 633.059 708.536 633.55 708.499 634.038C707.487 647.448 701.291 656.598 691.981 662.602C682.697 668.589 670.343 671.432 657.009 672.33C630.338 674.127 599.527 668.153 580.883 663.652L581.117 662.68C599.741 667.176 630.43 673.118 656.942 671.333C670.2 670.44 682.359 667.617 691.439 661.761C700.493 655.923 706.514 647.052 707.502 633.962C707.538 633.485 707.574 633.005 707.61 632.522C709.603 606.146 712.295 570.522 708.103 537.375C703.84 503.664 692.475 472.661 666.167 456.51C659.672 456.963 654.425 459.194 650.206 462.816C645.946 466.472 642.709 471.567 640.308 477.741C635.5 490.102 634.076 506.693 634.423 524.415C634.769 542.126 636.882 560.912 639.112 577.636C639.867 583.299 640.636 588.729 641.354 593.801C642.755 603.691 643.964 612.221 644.498 618.458L644.519 618.7L644.342 618.866C628.644 633.552 605.528 639.983 584.506 640.242L584.494 639.242C605.277 638.986 628.025 632.647 643.481 618.301C642.938 612.114 641.75 603.724 640.37 593.983C639.651 588.905 638.879 583.46 638.121 577.768C635.889 561.035 633.771 542.204 633.423 524.435C633.076 506.677 634.496 489.926 639.376 477.379C641.818 471.1 645.135 465.85 649.555 462.057C653.98 458.258 659.486 455.943 666.26 455.501L666.418 455.491Z" fill="#CD511C"/>
<path fill-rule="evenodd" clip-rule="evenodd" d="M651.356 619.101C648.597 618.503 645.84 618.914 644.158 619.474L643.842 618.525C645.66 617.919 648.602 617.48 651.568 618.124C654.554 618.771 657.569 620.52 659.447 624.276L658.553 624.723C656.831 621.28 654.095 619.695 651.356 619.101Z" fill="#C8400B"/>
<path fill-rule="evenodd" clip-rule="evenodd" d="M651.433 615.849C648.259 615.976 645.731 617.736 644.381 619.323L643.619 618.676C645.103 616.93 647.875 614.99 651.393 614.85C654.938 614.709 659.119 616.399 663.389 621.685L662.611 622.314C658.481 617.2 654.579 615.724 651.433 615.849Z" fill="#C8400B"/>
<path d="M645.23 671.535C676.5 645.474 709.689 647.46 727.593 662.231C745.497 677.001 765.997 702.501 727.593 749.999C689.189 797.497 524.032 840.289 457.733 835.709L446.175 781.26C486.027 759.511 595.434 706.641 645.23 671.535Z" fill="#DA661B"/>
<path d="M645.23 671.535C676.5 645.474 709.689 647.46 727.593 662.231C745.497 677.001 765.997 702.501 727.593 749.999C689.189 797.497 524.032 840.289 457.733 835.709L446.175 781.26C466.536 770.148 505.052 750.913 544.498 730.074C536.498 751.647 546.998 788.001 549.498 801.001C691.998 786.501 738.451 724.54 723.498 694.001C712.498 671.535 661.819 668.024 645.23 671.535Z" fill="#D75907"/>
<path fill-rule="evenodd" clip-rule="evenodd" d="M644.926 671.138C676.335 644.971 709.786 646.892 727.912 661.845C736.89 669.251 746.606 679.415 749.201 693.753C751.799 708.107 747.236 726.501 727.983 750.313C718.31 762.276 700.705 773.895 678.768 784.523C656.817 795.158 630.473 804.826 603.266 812.862C548.87 828.931 490.938 838.504 457.699 836.208L457.323 836.182L445.609 780.999L445.936 780.821C456.527 775.041 472.036 767.06 490.029 757.801C505.892 749.638 523.685 740.481 541.741 730.964C580.293 710.642 620.057 688.668 644.926 671.138ZM727.276 662.616C709.596 648.031 676.678 645.976 645.551 671.919L645.536 671.932L645.519 671.944C620.591 689.518 580.763 711.525 542.208 731.848C524.126 741.379 506.328 750.538 490.468 758.7C472.674 767.856 457.32 775.757 446.742 781.52L458.144 835.235C491.266 837.422 548.83 827.9 602.983 811.903C630.154 803.877 656.443 794.228 678.332 783.623C700.235 773.012 717.676 761.47 727.205 749.684C746.356 725.998 750.744 707.893 748.217 693.931C745.687 679.951 736.202 669.98 727.276 662.616Z" fill="#CF3E07"/>
<path fill-rule="evenodd" clip-rule="evenodd" d="M588.454 811.441C587.926 811.602 587.367 811.303 587.207 810.775L584.841 802.987C584.68 802.459 584.978 801.9 585.507 801.74C586.035 801.579 586.594 801.877 586.754 802.406L589.12 810.194C589.281 810.722 588.983 811.281 588.454 811.441Z" fill="#AB4300"/>
<path fill-rule="evenodd" clip-rule="evenodd" d="M650.87 780.283C650.333 780.153 650.003 779.612 650.133 779.075L652.05 771.165C652.18 770.628 652.721 770.298 653.257 770.428C653.794 770.558 654.124 771.099 653.994 771.636L652.077 779.546C651.947 780.083 651.407 780.413 650.87 780.283Z" fill="#AB4300"/>
<path fill-rule="evenodd" clip-rule="evenodd" d="M562.397 761.518C561.995 761.14 561.974 760.508 562.352 760.105L567.918 754.166C568.295 753.763 568.928 753.742 569.331 754.12C569.734 754.498 569.755 755.13 569.377 755.533L563.811 761.472C563.433 761.875 562.8 761.896 562.397 761.518Z" fill="#AB4300"/>
<path fill-rule="evenodd" clip-rule="evenodd" d="M605.88 719.448C605.343 719.318 605.013 718.777 605.143 718.24L607.06 710.33C607.19 709.793 607.731 709.463 608.267 709.593C608.804 709.723 609.134 710.264 609.004 710.801L607.087 718.711C606.957 719.248 606.416 719.578 605.88 719.448Z" fill="#AB4300"/>
<path fill-rule="evenodd" clip-rule="evenodd" d="M699.055 743.414C698.519 743.284 698.189 742.744 698.319 742.207L700.236 734.297C700.366 733.76 700.906 733.43 701.443 733.56C701.98 733.69 702.309 734.231 702.179 734.768L700.263 742.678C700.133 743.215 699.592 743.545 699.055 743.414Z" fill="#AB4300"/>
<path fill-rule="evenodd" clip-rule="evenodd" d="M656.846 726.195C656.554 725.726 656.697 725.109 657.166 724.817L664.075 720.515C664.544 720.223 665.161 720.366 665.453 720.835C665.745 721.304 665.601 721.92 665.133 722.212L658.223 726.515C657.755 726.807 657.138 726.664 656.846 726.195Z" fill="#AB4300"/>
<path fill-rule="evenodd" clip-rule="evenodd" d="M650.26 688.105C649.724 687.975 649.394 687.435 649.524 686.898L651.441 678.988C651.571 678.451 652.111 678.121 652.648 678.251C653.185 678.381 653.515 678.922 653.385 679.458L651.468 687.369C651.338 687.906 650.797 688.235 650.26 688.105Z" fill="#AB4300"/>
<path fill-rule="evenodd" clip-rule="evenodd" d="M704.168 668.396C703.77 668.013 703.758 667.38 704.141 666.982L709.782 661.115C710.165 660.717 710.798 660.704 711.196 661.087C711.594 661.47 711.607 662.103 711.224 662.501L705.582 668.368C705.199 668.766 704.566 668.779 704.168 668.396Z" fill="#AB4300"/>
<path fill-rule="evenodd" clip-rule="evenodd" d="M737.641 695.764C737.917 695.286 738.529 695.122 739.007 695.398L746.056 699.467C746.535 699.744 746.699 700.355 746.422 700.833C746.146 701.312 745.535 701.476 745.056 701.2L738.007 697.13C737.529 696.854 737.365 696.242 737.641 695.764Z" fill="#AB4300"/>
<path fill-rule="evenodd" clip-rule="evenodd" d="M613.331 768.222C612.879 768.538 612.255 768.428 611.939 767.975L607.278 761.303C606.961 760.85 607.072 760.226 607.525 759.91C607.977 759.594 608.601 759.704 608.917 760.157L613.579 766.83C613.895 767.282 613.784 767.906 613.331 768.222Z" fill="#AB4300"/>
<path fill-rule="evenodd" clip-rule="evenodd" d="M520.2 824.976C519.663 824.846 519.333 824.305 519.464 823.769L521.38 815.858C521.51 815.321 522.051 814.992 522.588 815.122C523.124 815.252 523.454 815.792 523.324 816.329L521.407 824.24C521.277 824.776 520.737 825.106 520.2 824.976Z" fill="#AB4300"/>
<path fill-rule="evenodd" clip-rule="evenodd" d="M542.635 785.155C542.463 785.68 541.898 785.965 541.373 785.793L533.639 783.257C533.114 783.085 532.828 782.52 533 781.995C533.172 781.47 533.737 781.184 534.262 781.356L541.996 783.893C542.521 784.065 542.807 784.63 542.635 785.155Z" fill="#AB4300"/>
<path d="M533.496 1015H475.496L484.496 1071.5H530.496L533.496 1015Z" fill="#EBAC76"/>
<path d="M530.496 1071.5H484.496L482.664 1060C486.275 1053 497.198 1039.7 511.997 1042.5C526.796 1045.3 517.163 1025.33 510.497 1015H533.496L530.496 1071.5Z" fill="#E19A5E"/>
<path d="M474.996 1118.5C474.996 1111.7 479.329 1090.33 481.496 1080.5C485.257 1062 487.996 1064.5 489.496 1064.5C491.996 1054.5 499.496 1047.5 511.996 1048C524.496 1048.5 527.496 1062 527.496 1066C531.996 1068 533.496 1093 530.996 1095.5C528.996 1097.5 533.496 1110 535.996 1116V1129.5C513.496 1149 474.996 1137.5 474.996 1131V1118.5Z" fill="#295C47"/>
<path fill-rule="evenodd" clip-rule="evenodd" d="M496.688 1051.92C500.544 1048.9 505.665 1047.25 512.016 1047.5C518.48 1047.76 522.491 1051.39 524.865 1055.43C527.118 1059.27 527.922 1063.51 527.991 1065.7C528.579 1066.07 529.068 1066.72 529.483 1067.51C529.973 1068.43 530.403 1069.62 530.775 1070.97C531.52 1073.67 532.055 1077.09 532.369 1080.52C532.683 1083.94 532.778 1087.39 532.636 1090.14C532.565 1091.52 532.434 1092.74 532.238 1093.7C532.14 1094.18 532.023 1094.6 531.884 1094.96C531.748 1095.31 531.576 1095.63 531.35 1095.85C531.219 1095.98 531.09 1096.26 531.031 1096.77C530.974 1097.26 530.991 1097.89 531.079 1098.65C531.254 1100.15 531.698 1102.06 532.289 1104.11C533.47 1108.21 535.212 1112.82 536.458 1115.81L536.496 1115.9V1129.73L536.324 1129.88C524.93 1139.75 509.52 1141.76 497.009 1140.5C490.748 1139.87 485.182 1138.42 481.167 1136.71C479.162 1135.86 477.524 1134.93 476.377 1133.99C475.256 1133.07 474.496 1132.05 474.496 1131V1118.5C474.496 1115.05 475.59 1107.96 476.942 1100.55C478.297 1093.12 479.923 1085.32 481.007 1080.4C481.949 1075.76 482.83 1072.43 483.649 1070.03C484.465 1067.65 485.229 1066.16 485.953 1065.25C486.69 1064.32 487.405 1063.97 488.09 1063.9C488.416 1063.87 488.709 1063.9 488.947 1063.93C489.009 1063.94 489.065 1063.95 489.117 1063.96C489.117 1063.96 489.118 1063.96 489.119 1063.96C490.425 1059.05 492.941 1054.85 496.688 1051.92ZM497.304 1052.71C493.657 1055.56 491.209 1059.71 489.981 1064.62L489.886 1065H489.496C489.306 1065 489.096 1064.97 488.921 1064.94C488.88 1064.94 488.841 1064.93 488.805 1064.92C488.591 1064.89 488.395 1064.88 488.194 1064.9C487.826 1064.93 487.34 1065.11 486.735 1065.87C486.116 1066.65 485.397 1068.01 484.595 1070.36C483.795 1072.7 482.924 1075.99 481.986 1080.6L481.984 1080.61C480.902 1085.52 479.278 1093.31 477.925 1100.73C476.569 1108.16 475.496 1115.15 475.496 1118.5V1131C475.496 1131.58 475.939 1132.34 477.011 1133.22C478.058 1134.07 479.603 1134.96 481.559 1135.79C485.467 1137.46 490.932 1138.88 497.109 1139.5C509.409 1140.74 524.407 1138.77 535.496 1129.27V1116.1C534.244 1113.09 532.51 1108.5 531.328 1104.39C530.732 1102.32 530.27 1100.35 530.085 1098.76C529.993 1097.97 529.968 1097.25 530.038 1096.65C530.106 1096.07 530.273 1095.52 530.643 1095.15C530.728 1095.06 530.838 1094.89 530.952 1094.6C531.064 1094.31 531.167 1093.94 531.258 1093.5C531.441 1092.6 531.568 1091.44 531.637 1090.09C531.777 1087.39 531.684 1084 531.373 1080.61C531.062 1077.22 530.535 1073.86 529.811 1071.23C529.449 1069.92 529.042 1068.81 528.599 1067.97C528.147 1067.12 527.698 1066.64 527.293 1066.46L526.996 1066.33V1066C526.996 1064.08 526.266 1059.79 524.002 1055.94C521.751 1052.11 518.012 1048.74 511.976 1048.5C505.827 1048.25 500.948 1049.85 497.304 1052.71Z" fill="#2C4046"/>
<path d="M535.997 1116V1129.5C528.998 1135.57 520.451 1138.63 511.997 1139.78C503.996 1100.06 515.498 1094 511.997 1092C508.496 1090 504.998 1086 513.998 1073.5C521.198 1063.5 515.664 1052.33 511.997 1048C524.497 1048.5 527.497 1062 527.497 1066C531.997 1068 533.497 1093 530.997 1095.5C528.997 1097.5 533.497 1110 535.997 1116Z" fill="#1E533D"/>
<path d="M507.496 1104C485.896 1103.6 478.496 1113.76 477.496 1118.88C488.446 1125.49 510.92 1132.6 532.496 1119.55C533.163 1114.54 525.996 1104.34 507.496 1104Z" fill="#06394B"/>
<path d="M532.496 1119.55C510.92 1132.6 488.446 1125.49 477.496 1118.88C491.904 1122.45 518.348 1124.48 508.859 1104.04C526.349 1104.85 533.146 1114.66 532.496 1119.55Z" fill="#033344"/>
<path d="M474.996 1131V1117.25C484.678 1124.16 509.114 1133.69 532.496 1119.55C533.666 1118.85 534.833 1118.08 535.996 1117.25V1129.5C513.496 1149 474.996 1137.5 474.996 1131Z" fill="#032935"/>
<path fill-rule="evenodd" clip-rule="evenodd" d="M536.496 1116.28V1129.73L536.324 1129.88C524.93 1139.75 509.52 1141.76 497.009 1140.5C490.748 1139.87 485.182 1138.42 481.167 1136.71C479.162 1135.86 477.524 1134.93 476.377 1133.99C475.256 1133.07 474.496 1132.05 474.496 1131V1116.28L475.286 1116.84C484.88 1123.68 509.092 1133.12 532.237 1119.13C533.396 1118.42 534.553 1117.67 535.706 1116.84L536.496 1116.28ZM475.496 1118.2V1131C475.496 1131.58 475.939 1132.34 477.011 1133.22C478.058 1134.07 479.603 1134.96 481.559 1135.79C485.467 1137.46 490.932 1138.88 497.109 1139.5C509.409 1140.74 524.407 1138.77 535.496 1129.27V1118.21C534.585 1118.84 533.671 1119.43 532.755 1119.98C509.748 1133.89 485.755 1125.11 475.496 1118.2Z" fill="#2C4046"/>
<path fill-rule="evenodd" clip-rule="evenodd" d="M522.291 1099.46C505.655 1091.93 491.969 1096.34 487.271 1099.42L486.723 1098.58C491.691 1095.33 505.739 1090.87 522.703 1098.54L522.291 1099.46Z" fill="#06394B"/>
<path fill-rule="evenodd" clip-rule="evenodd" d="M518.718 1091.42C505.748 1082.77 493.69 1087.82 489.311 1091.39L488.68 1090.61C493.301 1086.85 505.843 1081.63 519.273 1090.58L518.718 1091.42Z" fill="#06394B"/>
<path fill-rule="evenodd" clip-rule="evenodd" d="M502.707 1078.75C498.084 1079.32 494.062 1081.28 491.786 1082.91L491.205 1082.09C493.596 1080.38 497.774 1078.35 502.584 1077.75C507.409 1077.16 512.889 1078.01 517.816 1082.12L517.176 1082.88C512.503 1078.99 507.316 1078.18 502.707 1078.75Z" fill="#06394B"/>
<path fill-rule="evenodd" clip-rule="evenodd" d="M503.79 1070.67C500.723 1071.17 498.218 1072.91 496.86 1074.34L496.133 1073.66C497.608 1072.1 500.303 1070.23 503.628 1069.68C506.982 1069.13 510.93 1069.93 514.84 1073.64L514.152 1074.36C510.462 1070.87 506.827 1070.17 503.79 1070.67Z" fill="#06394B"/>
<path d="M474.496 1024.5C456.371 953.509 391.599 691.245 473.996 689C569.609 689 544.602 975 535.997 1017L474.496 1024.5Z" fill="#DA661B"/>
<path d="M473.996 689C414.725 690.615 431.605 826.773 452.496 929.5C434.896 815.9 459.496 721.834 473.996 689Z" fill="#E3732A"/>
<path d="M535.997 1017L474.496 1024.5C551.494 975.5 469.498 942 492.498 909C510.372 887.058 542.344 836.868 540.332 797.575C539.809 793.665 539.24 789.803 538.622 786C539.575 789.719 540.128 793.591 540.332 797.575C551.787 883.246 541.056 992.304 535.997 1017Z" fill="#D75907"/>
<path fill-rule="evenodd" clip-rule="evenodd" d="M473.996 688.5V688.501C498.215 688.501 514.704 706.63 525.695 734.159C536.691 761.703 542.264 798.829 544.577 837.22C549.204 914.008 540.799 996.053 536.487 1017.1L535.507 1016.9C539.8 995.948 548.201 913.992 543.579 837.281C541.268 798.922 535.703 761.924 524.766 734.53C513.824 707.124 497.587 689.504 474.003 689.501C463.861 689.779 455.997 694.047 450.006 701.464C443.998 708.9 439.862 719.518 437.254 732.485C432.038 758.419 432.969 793.568 437.047 830.917C445.202 905.598 465.918 988.881 474.981 1024.38L474.012 1024.62C464.949 989.129 444.216 905.784 436.053 831.025C431.972 793.653 431.027 758.378 436.274 732.288C438.897 719.243 443.078 708.448 449.228 700.835C455.394 693.203 463.528 688.786 473.982 688.501L473.996 688.5Z" fill="#CF3E07"/>
<path fill-rule="evenodd" clip-rule="evenodd" d="M449.04 765.698C449.154 765.157 449.685 764.812 450.225 764.927L458.187 766.618C458.728 766.733 459.073 767.264 458.958 767.804C458.843 768.344 458.312 768.689 457.772 768.574L449.81 766.884C449.27 766.769 448.925 766.238 449.04 765.698Z" fill="#AB4300"/>
<path fill-rule="evenodd" clip-rule="evenodd" d="M450.261 838.325C450.634 837.918 451.267 837.89 451.674 838.263L457.674 843.763C458.081 844.137 458.108 844.769 457.735 845.176C457.362 845.583 456.729 845.611 456.322 845.238L450.322 839.738C449.915 839.364 449.888 838.732 450.261 838.325Z" fill="#AB4300"/>
<path fill-rule="evenodd" clip-rule="evenodd" d="M509.434 769.928C509.96 769.757 510.524 770.045 510.694 770.571L513.205 778.313C513.375 778.838 513.087 779.402 512.562 779.573C512.036 779.743 511.472 779.455 511.302 778.93L508.791 771.188C508.621 770.662 508.909 770.098 509.434 769.928Z" fill="#AB4300"/>
<path fill-rule="evenodd" clip-rule="evenodd" d="M525.261 828.325C525.634 827.918 526.267 827.89 526.674 828.263L532.674 833.763C533.081 834.137 533.108 834.769 532.735 835.176C532.362 835.583 531.729 835.611 531.322 835.238L525.322 829.738C524.915 829.364 524.888 828.732 525.261 828.325Z" fill="#AB4300"/>
<path fill-rule="evenodd" clip-rule="evenodd" d="M459.261 898.325C459.634 897.918 460.267 897.89 460.674 898.263L466.674 903.763C467.081 904.137 467.108 904.769 466.735 905.176C466.362 905.583 465.729 905.611 465.322 905.238L459.322 899.738C458.915 899.364 458.888 898.732 459.261 898.325Z" fill="#AB4300"/>
<path fill-rule="evenodd" clip-rule="evenodd" d="M494.732 869.688C495.283 869.659 495.754 870.082 495.783 870.634L496.212 878.762C496.241 879.314 495.818 879.784 495.266 879.813C494.715 879.842 494.244 879.419 494.215 878.867L493.786 870.739C493.757 870.188 494.18 869.717 494.732 869.688Z" fill="#AB4300"/>
<path fill-rule="evenodd" clip-rule="evenodd" d="M531.261 882.325C531.634 881.918 532.267 881.89 532.674 882.263L538.674 887.763C539.081 888.137 539.108 888.769 538.735 889.176C538.362 889.583 537.729 889.611 537.322 889.238L531.322 883.738C530.915 883.364 530.888 882.732 531.261 882.325Z" fill="#AB4300"/>
<path fill-rule="evenodd" clip-rule="evenodd" d="M522.474 939.045C523.001 938.882 523.562 939.177 523.725 939.704L526.137 947.478C526.3 948.006 526.005 948.566 525.478 948.73C524.95 948.893 524.39 948.598 524.226 948.071L521.815 940.297C521.651 939.769 521.946 939.209 522.474 939.045Z" fill="#AB4300"/>
<path fill-rule="evenodd" clip-rule="evenodd" d="M482.339 955.131C482.625 955.604 482.473 956.218 482 956.504L475.031 960.709C474.558 960.995 473.944 960.843 473.658 960.37C473.373 959.897 473.525 959.283 473.998 958.997L480.967 954.792C481.439 954.506 482.054 954.658 482.339 955.131Z" fill="#AB4300"/>
<path fill-rule="evenodd" clip-rule="evenodd" d="M480.261 993.325C480.634 992.918 481.267 992.89 481.674 993.263L487.674 998.763C488.081 999.137 488.108 999.769 487.735 1000.18C487.362 1000.58 486.729 1000.61 486.322 1000.24L480.322 994.738C479.915 994.364 479.888 993.732 480.261 993.325Z" fill="#AB4300"/>
<path fill-rule="evenodd" clip-rule="evenodd" d="M519.261 999.325C519.634 998.918 520.267 998.89 520.674 999.263L526.674 1004.76C527.081 1005.14 527.108 1005.77 526.735 1006.18C526.362 1006.58 525.729 1006.61 525.322 1006.24L519.322 1000.74C518.915 1000.36 518.888 999.732 519.261 999.325Z" fill="#AB4300"/>
<path fill-rule="evenodd" clip-rule="evenodd" d="M478.958 811.285C478.9 810.735 479.298 810.243 479.847 810.185L487.941 809.327C488.49 809.269 488.983 809.667 489.041 810.216C489.099 810.765 488.701 811.258 488.152 811.316L480.058 812.174C479.509 812.232 479.016 811.834 478.958 811.285Z" fill="#AB4300"/>
<path fill-rule="evenodd" clip-rule="evenodd" d="M474.261 702.325C474.634 701.918 475.267 701.89 475.674 702.263L481.674 707.763C482.081 708.137 482.108 708.769 481.735 709.176C481.362 709.583 480.729 709.611 480.322 709.238L474.322 703.738C473.915 703.364 473.888 702.732 474.261 702.325Z" fill="#AB4300"/>
<path fill-rule="evenodd" clip-rule="evenodd" d="M498.287 741.205C497.911 740.801 497.934 740.168 498.338 739.792L504.295 734.246C504.7 733.869 505.332 733.892 505.709 734.296C506.085 734.7 506.062 735.333 505.658 735.709L499.701 741.256C499.296 741.632 498.664 741.609 498.287 741.205Z" fill="#AB4300"/>
<path d="M517.209 319.001C516.409 326.201 514.209 334.001 511.709 334.001C514.509 324.401 507.876 321 504.209 320.5C492.21 320.5 502.709 355.5 512.709 357.5C509.002 414.966 583 430.5 600.209 364C610.709 357.5 618.709 329 606.195 338.5C605.802 339.619 605.467 340.782 605.209 342H603.209C603.209 330.5 602.209 302.5 605.209 296.5C598.349 288.66 588.475 283.861 578 281.285C556.411 275.974 532.272 280.104 526.709 286.5C515.838 299 526.709 305 526.709 309.001C519.709 308 518.098 311 517.209 319.001Z" fill="#EBAC76"/>
<path fill-rule="evenodd" clip-rule="evenodd" d="M563.113 407.048C537.48 413.018 509.902 393.236 512.21 357.468L513.208 357.532C510.94 392.677 537.95 411.881 562.887 406.074L563.113 407.048Z" fill="#DD7A42"/>
<path d="M603.209 342C603.209 330.5 602.209 302.5 605.209 296.501C598.349 288.66 588.475 283.861 578 281.285C578 296.501 621.5 355.5 569.5 404.456C582.695 398.925 594.537 385.919 600.209 364C610.709 357.5 618.709 329 606.195 338.5C605.802 339.619 605.467 340.782 605.209 342H603.209Z" fill="#DD7A42"/>
<path d="M517.209 319.001C516.409 326.201 514.209 334.001 511.709 334.001C514.509 324.401 507.876 321 504.209 320.5C504.209 316.9 505.709 304.5 504.209 298.5C504.209 278.5 533.709 255.5 551.209 255.5L545.209 249.5C556.209 253.5 563.709 250.5 570.709 254.5C569.509 250.5 565.542 248.5 563.709 248C603.209 258.5 620.709 299.5 612.209 298.5C625.176 317.487 611.121 324.464 606.195 338.5C605.802 339.619 605.467 340.782 605.209 342H603.209C603.209 330.5 602.209 302.5 605.209 296.5C584.209 272.5 534.97 277.001 526.709 286.5C515.838 299 526.709 305 526.709 309.001C519.709 308 518.098 311 517.209 319.001Z" fill="#783D21"/>
<path d="M603.209 342C603.209 330.5 602.209 302.5 605.209 296.5C599.903 290.437 592.795 286.192 585 283.388C580 281.425 571.3 276.7 576.5 273.5C583 269.5 572.589 264 560 264C536 264 536 264 551.209 255.5L545.209 249.5C556.209 253.5 563.709 250.5 570.709 254.5C569.509 250.5 565.542 248.5 563.709 248C603.209 258.5 620.709 299.5 612.209 298.5C625.176 317.487 611.121 324.464 606.195 338.5C605.802 339.619 605.467 340.782 605.209 342H603.209Z" fill="#693015"/>
</svg>
